<svg clip-rule="evenodd" fill-rule="evenodd" viewBox="0 0 1024 1024" fill="currentColor"
    xmlns="http://www.w3.org/2000/svg">
    <path
        d="m635.80737868 703.99614c-3.1809687 0-6.23394576-1.26485856-8.48509284-3.51412341-2.24926485-2.25114708-3.51412341-5.30224191-3.51412341-8.48509284v-24.98283879c0-3.18285093 1.26485856-6.23582799 3.51412341-8.48697507 2.25114708-2.24926485 5.30412414-3.51412341 8.48509284-3.51412341h304.88549763c3.18285093 0 6.23394576 1.26485856 8.48509284 3.51412341 2.24926485 2.25114708 3.51412341 5.30412414 3.51412341 8.48697507v24.98283879c0 3.18285093-1.26485856 6.23394576-3.51412341 8.48509284-2.25114708 2.24926485-5.30224191 3.51412341-8.48509284 3.51412341zm289.33074891-276.08361417c4.0279722 2.04598401 6.56521824 6.18124332 6.56521824 10.70047755 0 4.517352-2.53724604 8.65261131-6.56521824 10.69859532l-260.49686754 132.31512231c-3.71928648 1.88975892-8.15382036 1.71094707-11.71123506-.4705575-3.55553247-2.1833868-5.72386143-6.05513391-5.72386143-10.22803782v-264.63212685c0-4.17290391 2.16832896-8.04465102 5.72386143-10.22803782 3.5574147-2.18150457 7.99194858-2.36031642 11.71123506-.4705575zm-228.94881051-61.35128685v144.10164657l141.85049949-72.04988217zm-579.39180306 50.39482602c0-30.11568.188223-30.11568 28.23345-30.11568h92.22927c13.17561 0 18.8223 6.776028 18.8223 18.8223v96.746622c0 120.839166-.564669 128.556309-10.540488 149.637285-27.104112 57.408015-114.627807 69.64251-157.354428 22.210314-10.164042-11.29338-9.787596-14.681394 6.023136-35.574147 12.046272-15.998955 13.740279-17.504739 19.575192-17.504739 6.399582 0 9.034704 2.070453 18.634077 15.810732 5.082021 7.340697 16.563624 12.422718 27.668781 12.422718 19.198746 0 32.186133-12.046272 35.76237-33.127248.941115-6.023136 1.88223-48.93798 1.88223-95.240838v-79.618329h-67.76028c-13.17561 0-13.17561-.188223-13.17561-24.46899zm195.187251 108.792894c-7.717143-77.547876 24.280767-111.05157 56.655123-129.87387s79.05366-7.52892 98.440629 9.222927c0-12.610941 1.505784-15.434286 26.162997-15.434286s28.23345.188223 28.23345 18.8223v267.27666c0 24.46899-2.635122 28.23345-28.23345 28.23345-28.23345 0-28.23345-3.576237-28.23345-18.8223v-77.17143c-24.657213 16.94007-43.479513 20.516307-70.583625 16.94007-35.385924-5.270244-76.794984-42.350175-82.441674-99.193521zm151.143069-20.139861c0-51.008433-14.493171-67.76028-46.679304-67.76028-44.608851 0-54.396447 47.432196-49.314426 79.05366 4.517352 28.045227 17.881185 55.714008 51.384879 55.714008 24.845436 0 44.608851-12.046272 44.608851-67.007388zm-237.16098-210.056868c19.73894601 0 35.76237 16.02530622 35.76237 35.76237s-16.02342399 35.76237-35.76237 35.76237c-19.73706378 0-35.76237-16.02530622-35.76237-35.76237s16.02530622-35.76237 35.76237-35.76237z" />
</svg>
